<svg width="28" height="3" fill="none" xmlns="http://www.w3.org/2000/svg"><path d="M0.331491 1.40777C1.88197 1.08768 2.99329 1.13193 4.33698 0.97994C5.68067 0.827948 6.5123 1.08487 7.72993 1.028C10.2243 0.880909 11.114 1.4408 13.8054 1.11407C15.9552 1.24713 19.2802 1.0491 21.3728 1.22126C23.4536 1.41036 25.56 1.57132 27.5995 1.79404L27.31 2.02937C24.8018 2.18767 22.3763 2.27873 19.9115 2.40914C17.4743 2.51714 15.4943 2.24396 13.0964 2.3126C10.6985 2.38125 8.33568 2.41619 6.26865 2.21589C5.21446 2.13254 3.79005 2.3575 2.8757 2.16782C1.94359 1.97789 0.767318 2.00114 0.0419922 1.64311L0.331491 1.40777Z" fill="#015CA1"/></svg>