<?xml version="1.0" encoding="UTF-8"?>
<svg width="24px" height="24px" viewBox="0 0 24 24" version="1.1" xmlns="http://www.w3.org/2000/svg" xmlns:xlink="http://www.w3.org/1999/xlink">
    <title>4050FBD1-D616-4B4F-BAAE-107F33215314@2x</title>
    <g id="Symbols" stroke="none" stroke-width="1" fill="none" fill-rule="evenodd">
        <g id="icon-/-hamburger-/-dark" fill="#015CA1" fill-rule="nonzero">
            <g id="Menu---Hamburger-2" transform="translate(3.000000, 4.000000)">
                <path d="M1,1.90559878 C2.00134614,1.75253201 3.00269227,1.6504875 3.99596159,1.52293187 C4.99730197,1.40812952 5.9986481,1.31246393 7,1.23593054 C8.00136342,1.15302279 9.00266923,0.897911515 9.99596735,1.04459936 C10.4966491,1.10200054 10.9972732,1.19128721 11.4979549,1.32522176 C11.9986366,1.45915177 12.4993183,1.6313553 13,1.90559878 L13,2.09692996 C12.4993183,2.37117345 11.9986366,2.54337697 11.4979549,2.67730698 C10.9972732,2.81762045 10.4966491,2.90053276 9.99596735,2.95792938 C8.99460394,3.09824286 8.00136342,2.8495105 7,2.7665982 C5.9986481,2.6836859 4.99730197,2.58802031 3.99596159,2.47959688 C3.00269227,2.35204124 2.00134614,2.24999673 1,2.09692996 L1,1.90559878 Z" id="Path"></path>
                <path d="M0,7.90421906 C0.746199219,7.62960969 1.50069105,7.45722717 2.24689618,7.32311138 C2.9930954,7.1826178 3.74758724,7.09961543 4.49378645,7.04212422 C5.99445976,6.90163064 7.49517447,7.1506833 8.99588918,7.23373122 C10.4965447,7.3103558 11.9972595,7.40611374 13.4979742,7.52105061 C14.9986297,7.64878861 16.4993444,7.7509699 18,7.90421906 L18,8.0957805 C16.4993444,8.24902966 14.9986297,8.35121095 13.4979742,8.47894895 C11.9972595,8.59388582 10.4965447,8.68964376 8.99588918,8.7663139 C7.49517447,8.84931627 5.99445976,9.09836892 4.49378645,8.95787534 C3.74758724,8.90038413 2.9930954,8.81100398 2.24689618,8.67688819 C1.50069105,8.53639461 0.746199219,8.37038987 0,8.0957805 L0,7.90421906 Z" id="Path"></path>
                <path d="M6,13.9044608 C7.00203689,13.7515985 8.00401614,13.6496751 8.99798232,13.5222596 C10.0000192,13.4076128 11.0019985,13.3120966 11.9959646,13.2356654 C12.9979439,13.1528271 13.9999808,12.8980414 14.993947,13.0445421 C15.4949078,13.1018882 15.9959262,13.1910427 16.4969447,13.32482 C16.9979631,13.4585972 17.4989816,13.6305446 18,13.9044608 L18,14.0955387 C17.4989816,14.3694549 16.9979631,14.5414023 16.4969447,14.6751796 C15.9959262,14.8153185 15.4949078,14.8981114 14.993947,14.9554575 C13.9919101,15.1019581 12.9898732,14.8471724 11.9959646,14.7643796 C10.9939277,14.687903 9.99189085,14.5923867 8.99798232,14.47774 C7.99594543,14.3503244 6.99396618,14.2484011 6,14.0955387 L6,13.9044608 Z" id="Path"></path>
                <path d="M15.5647578,3.8199426 C15.796887,4.06001913 16.2031278,4.06001913 16.4351979,3.8199426 L17.8445326,2.37173209 C18.0518225,2.16263335 18.0518225,1.83736927 17.8445326,1.62827054 L16.4351979,0.18005781 C16.2031278,-0.06001927 15.796887,-0.06001927 15.5647578,0.18005781 L14.1554231,1.62827054 C13.9481923,1.83736927 13.9481923,2.16263335 14.1554231,2.37173209 L15.5647578,3.8199426 Z" id="Path"></path>
                <path d="M1.56476952,15.8199592 C1.79689422,16.0600136 2.203108,16.0600136 2.4352327,15.8199592 L3.84455825,14.3717321 C4.05181392,14.1626168 4.05181392,13.8373693 3.84455825,13.628254 L2.4352327,12.1800823 C2.203108,11.9399726 1.79689422,11.9399726 1.56476952,12.1800823 L0.155440423,13.628254 C-0.0518134742,13.8373693 -0.0518134742,14.1626168 0.155440423,14.3717321 L1.56476952,15.8199592 Z" id="Path"></path>
            </g>
        </g>
    </g>
</svg>